<svg xmlns="http://www.w3.org/2000/svg" width="512" height="512" viewBox="0 0 512 512"><path d="M256 50C142.23 50 50 142.23 50 256c0 113.767 92.23 206 206 206s206-92.233 206-206c0-113.77-92.23-206-206-206zm169.688 196.404c-44.2-7.25-84.854-7.64-121.924-1.254-4.188-9.673-8.532-19.304-13.163-28.842 39.64-17.163 71.504-40.484 95.24-70.065 23.165 27.363 37.71 62.11 39.848 100.16zM359.73 121.402c-20.673 26.665-49.222 47.766-85.585 63.165-17.445-31.947-37.384-63.1-59.89-93.344 13.382-3.398 27.32-5.397 41.744-5.397 39.06 0 74.98 13.365 103.73 35.576zm-180.512-17.064c22.86 29.91 43.108 60.73 60.714 92.374-41.712 12.28-91.516 18.59-149.08 18.985 11.885-48.676 44.668-89.147 88.366-111.36zM85.826 256c0-1.482.184-2.92.223-4.39 66.062-.093 123.055-7.697 170.807-22.7 4.003 8.145 7.834 16.336 11.493 24.58-58.012 18.132-105.825 55.304-143.11 111.246C100.655 335.228 85.825 297.318 85.825 256zm65.736 134.067c33.8-53.01 76.952-87.513 130.43-103.463 15.918 41.54 27.62 84.282 35.062 128.06-18.984 7.33-39.52 11.51-61.053 11.51-39.378 0-75.575-13.566-104.438-36.107zm198.892 7.383c-7.52-40.384-18.543-79.878-32.956-118.4 32.19-4.542 67.64-3.36 106.41 3.373-7.505 47.824-34.815 89.137-73.454 115.027z"/></svg>